<svg xmlns="http://www.w3.org/2000/svg" viewBox="-80 -146 787 787">
  <rect x="-80" y="-146" width="787" height="787" rx="120" fill="#0d0d0d"/>
  <g fill="#e9e4d8">
    <path d="M627,181.3l-52.4-52.4h0l-76.3-76.3h0L445.9.2l-132.2,132.2L181.3,0l-52.4,52.4h0L.9,180.4l-.9.9,93.7,93.7,52.4-52.4-41.3-41.3,76.5-76.5,80,80-128.9,128.9,52.4,52.4,128.9-128.9,128.7,128.7,52.4-52.4h0l79.8-79.8h0l52.4-52.4h0ZM442.5,261.2l-76.3-76.4,79.8-79.8,76.3,76.4-79.8,79.8Z"/>
    <polygon points="349.5 354.1 313.6 390.1 277.6 354.1 225.3 406.4 313.6 494.7 313.8 494.5 313.8 494.5 346.5 461.8 365.9 442.4 365.9 442.4 401.9 406.4 349.5 354.1"/>
  </g>
</svg>
